<svg width="18" height="24" viewBox="0 0 18 24" fill="none" xmlns="http://www.w3.org/2000/svg">
<g filter="url(#filter0_d_33_42)">
<path d="M13.465 9.954C14.2 7.954 14.775 6.304 15.188 5C15.598 3.7 15.806 2.9 15.806 2.6C15.806 2.285 15.736 2.036 15.596 1.862C15.461 1.688 15.272 1.598 15.029 1.598C14.719 1.598 14.399 1.853 14.089 2.363C13.769 2.873 13.419 3.697 13.029 4.83L11.379 9.59L13.459 9.952H13.449V9.954H13.465ZM11.272 14.389C10.798 14.359 10.349 14.309 9.92803 14.239C9.50803 14.159 9.09803 14.049 8.71203 13.909C8.88903 14.259 9.04703 14.609 9.18403 14.959C9.32203 15.309 9.43403 15.649 9.52403 15.999C9.78403 15.669 10.064 15.369 10.354 15.099C10.646 14.829 10.954 14.589 11.269 14.379L11.272 14.389ZM9.41003 9.389L7.63003 4.249C7.16603 2.939 6.81003 2.089 6.55503 1.679C6.30503 1.279 6.03003 1.079 5.73303 1.079C5.50303 1.079 5.31603 1.159 5.17303 1.339C5.02903 1.519 4.95903 1.749 4.95903 2.039C4.95903 2.539 5.14903 3.419 5.52903 4.679C5.90903 5.929 6.48903 7.569 7.25903 9.609C7.31903 9.489 7.41903 9.399 7.53903 9.349C7.65903 9.299 7.81903 9.269 8.02903 9.269C8.08903 9.269 8.21903 9.279 8.41903 9.279C8.60903 9.299 8.93903 9.319 9.38903 9.369L9.41003 9.389ZM7.79203 17.349C7.98003 17.349 8.15203 17.259 8.30203 17.089C8.45203 16.909 8.53603 16.729 8.53603 16.539C8.53603 16.329 8.38603 15.839 8.08403 15.079C7.78403 14.319 7.40403 13.569 6.95403 12.829C6.62403 12.279 6.29903 11.859 5.98403 11.579C5.66003 11.299 5.35903 11.159 5.07403 11.159C4.84403 11.159 4.59003 11.299 4.30703 11.599C4.02703 11.889 3.88703 12.159 3.88703 12.409C3.88703 12.669 4.02703 13.069 4.30003 13.589C4.57503 14.119 4.94503 14.679 5.40403 15.269C5.88903 15.919 6.34403 16.419 6.77403 16.779C7.20203 17.139 7.54403 17.319 7.79403 17.319H7.79203V17.349ZM2.84703 16.949C3.00303 17.139 3.21703 17.409 3.49303 17.769C4.21603 18.769 4.88803 19.269 5.50303 19.269C5.71303 19.269 5.90003 19.199 6.06603 19.069C6.23003 18.929 6.31303 18.799 6.31303 18.649C6.31303 18.479 6.20303 18.209 5.98303 17.819C5.76103 17.429 5.45903 16.999 5.07603 16.519C4.63603 15.959 4.27103 15.549 3.97803 15.289C3.69003 15.029 3.45303 14.899 3.28103 14.899C2.90103 14.899 2.54103 15.109 2.22103 15.519C1.90103 15.919 1.74103 16.419 1.74103 16.979C1.74103 17.429 1.86103 17.929 2.09103 18.489C2.32103 19.039 2.64103 19.599 3.07103 20.159C3.72103 21.029 4.53103 21.689 5.49103 22.159C6.45103 22.619 7.52103 22.849 8.68103 22.849C10.821 22.849 12.621 22.049 14.061 20.449C15.511 18.849 16.231 16.849 16.231 14.439C16.231 13.699 16.181 13.109 16.071 12.679C15.961 12.249 15.781 11.929 15.531 11.729C15.081 11.349 14.201 11.019 12.901 10.719C11.601 10.419 10.241 10.269 8.82103 10.269C8.43103 10.269 8.14103 10.339 7.98103 10.469C7.82103 10.599 7.74103 10.829 7.74103 11.142C7.74103 11.892 8.16103 12.432 9.00103 12.768C9.84103 13.108 11.191 13.278 13.061 13.278H13.737C13.887 13.278 14.017 13.338 14.107 13.452C14.197 13.562 14.257 13.732 14.287 13.972C14.097 14.142 13.717 14.342 13.133 14.572C12.543 14.792 12.103 15.022 11.793 15.237C11.133 15.721 10.603 16.297 10.203 16.961C9.80303 17.621 9.60303 18.251 9.60303 18.844C9.60303 19.204 9.68903 19.644 9.86103 20.154C10.031 20.664 10.121 20.977 10.121 21.104V21.214L10.091 21.364C9.61103 21.334 9.23103 21.051 8.95103 20.514C8.66403 19.984 8.53103 19.274 8.53103 18.384V18.234C8.44103 18.309 8.35503 18.369 8.27103 18.399C8.18503 18.433 8.09303 18.449 8.00103 18.449C7.90103 18.449 7.80303 18.443 7.71103 18.429C7.62103 18.413 7.53103 18.389 7.42103 18.354C7.45103 18.474 7.47803 18.594 7.49703 18.707C7.50703 18.827 7.51703 18.917 7.51703 18.977C7.51703 19.383 7.35703 19.737 7.03703 20.027C6.71703 20.314 6.33703 20.457 5.89703 20.457C5.20703 20.457 4.50003 20.117 3.78703 19.447C3.07203 18.773 2.71703 18.107 2.71703 17.462C2.71703 17.342 2.73203 17.232 2.75703 17.139C2.78203 17.046 2.83203 16.969 2.89703 16.899L2.84703 16.949ZM14.654 10.219C15.639 10.399 16.339 10.819 16.744 11.469C17.154 12.109 17.354 13.129 17.354 14.529C17.354 17.299 16.526 19.559 14.862 21.319C13.195 23.079 11.065 23.969 8.47503 23.969C7.45203 23.969 6.45903 23.779 5.49903 23.409C4.52903 23.039 3.70903 22.519 3.00903 21.869C2.21903 21.139 1.61903 20.379 1.22903 19.569C0.829028 18.759 0.629028 17.929 0.629028 17.089C0.629028 16.139 0.829028 15.409 1.22903 14.899C1.62903 14.379 2.27903 14.029 3.15903 13.839C2.98903 13.449 2.86903 13.129 2.79903 12.859C2.71903 12.589 2.67903 12.389 2.67903 12.249C2.67903 11.749 2.93903 11.239 3.45903 10.729C3.97903 10.209 4.46903 9.949 4.92903 9.949C5.11903 9.949 5.32903 9.979 5.54903 10.059C5.76903 10.129 6.01903 10.249 6.29903 10.409C5.48903 8.059 4.86903 6.209 4.48903 4.909C4.09903 3.599 3.90903 2.709 3.90903 2.209C3.90903 1.529 4.07903 0.979004 4.42903 0.579004C4.78903 0.179004 5.26903 -0.0209961 5.86903 -0.0209961C6.89903 -0.0209961 8.20903 2.289 9.79903 6.902C10.079 7.692 10.279 8.302 10.429 8.732L10.939 7.279C12.529 2.729 13.889 0.449004 15.039 0.449004C15.599 0.449004 16.049 0.639004 16.379 1.019C16.709 1.402 16.879 1.906 16.879 2.542C16.879 3.022 16.689 3.902 16.319 5.192C15.952 6.472 15.399 8.152 14.649 10.232L14.654 10.219Z" fill="#64F5E0"/>
</g>
<defs>
<filter id="filter0_d_33_42" x="-3.37097" y="-0.0209961" width="24.725" height="31.99" filterUnits="userSpaceOnUse" color-interpolation-filters="sRGB">
<feFlood flood-opacity="0" result="BackgroundImageFix"/>
<feColorMatrix in="SourceAlpha" type="matrix" values="0 0 0 0 0 0 0 0 0 0 0 0 0 0 0 0 0 0 127 0" result="hardAlpha"/>
<feOffset dy="4"/>
<feGaussianBlur stdDeviation="2"/>
<feComposite in2="hardAlpha" operator="out"/>
<feColorMatrix type="matrix" values="0 0 0 0 0 0 0 0 0 0 0 0 0 0 0 0 0 0 0.25 0"/>
<feBlend mode="normal" in2="BackgroundImageFix" result="effect1_dropShadow_33_42"/>
<feBlend mode="normal" in="SourceGraphic" in2="effect1_dropShadow_33_42" result="shape"/>
</filter>
</defs>
</svg>
