<?xml version="1.0" encoding="UTF-8"?>
<svg width="18px" height="24px" viewBox="0 0 18 24" version="1.1" xmlns="http://www.w3.org/2000/svg" xmlns:xlink="http://www.w3.org/1999/xlink">
    <!-- Generator: Sketch 52.6 (67491) - http://www.bohemiancoding.com/sketch -->
    <title>angellist</title>
    <desc>Created with Sketch.</desc>
    <g id="Page-1" stroke="none" stroke-width="1" fill="none" fill-rule="evenodd">
        <g id="angellist" transform="translate(0.000000, -1.000000)" fill="#777777" fill-rule="nonzero">
            <path d="M13.465,10.954 C14.2,8.954 14.775,7.304 15.188,6 C15.598,4.7 15.806,3.9 15.806,3.6 C15.806,3.285 15.736,3.036 15.596,2.862 C15.461,2.688 15.272,2.598 15.029,2.598 C14.719,2.598 14.399,2.853 14.089,3.363 C13.769,3.873 13.419,4.697 13.029,5.83 L11.379,10.59 L13.459,10.952 L13.449,10.952 L13.449,10.954 L13.465,10.954 Z M11.272,15.389 C10.798,15.359 10.349,15.309 9.928,15.239 C9.508,15.159 9.098,15.049 8.712,14.909 C8.889,15.259 9.047,15.609 9.184,15.959 C9.322,16.309 9.434,16.649 9.524,16.999 C9.784,16.669 10.064,16.369 10.354,16.099 C10.646,15.829 10.954,15.589 11.269,15.379 L11.272,15.389 Z M9.41,10.389 L7.63,5.249 C7.166,3.939 6.81,3.089 6.555,2.679 C6.305,2.279 6.03,2.079 5.733,2.079 C5.503,2.079 5.316,2.159 5.173,2.339 C5.029,2.519 4.959,2.749 4.959,3.039 C4.959,3.539 5.149,4.419 5.529,5.679 C5.909,6.929 6.489,8.569 7.259,10.609 C7.319,10.489 7.419,10.399 7.539,10.349 C7.659,10.299 7.819,10.269 8.029,10.269 C8.089,10.269 8.219,10.279 8.419,10.279 C8.609,10.299 8.939,10.319 9.389,10.369 L9.41,10.389 Z M7.792,18.349 C7.98,18.349 8.152,18.259 8.302,18.089 C8.452,17.909 8.536,17.729 8.536,17.539 C8.536,17.329 8.386,16.839 8.084,16.079 C7.784,15.319 7.404,14.569 6.954,13.829 C6.624,13.279 6.299,12.859 5.984,12.579 C5.66,12.299 5.359,12.159 5.074,12.159 C4.844,12.159 4.59,12.299 4.307,12.599 C4.027,12.889 3.887,13.159 3.887,13.409 C3.887,13.669 4.027,14.069 4.3,14.589 C4.575,15.119 4.945,15.679 5.404,16.269 C5.889,16.919 6.344,17.419 6.774,17.779 C7.202,18.139 7.544,18.319 7.794,18.319 L7.792,18.319 L7.792,18.349 Z M2.847,17.949 C3.003,18.139 3.217,18.409 3.493,18.769 C4.216,19.769 4.888,20.269 5.503,20.269 C5.713,20.269 5.9,20.199 6.066,20.069 C6.23,19.929 6.313,19.799 6.313,19.649 C6.313,19.479 6.203,19.209 5.983,18.819 C5.761,18.429 5.459,17.999 5.076,17.519 C4.636,16.959 4.271,16.549 3.978,16.289 C3.69,16.029 3.453,15.899 3.281,15.899 C2.901,15.899 2.541,16.109 2.221,16.519 C1.901,16.919 1.741,17.419 1.741,17.979 C1.741,18.429 1.861,18.929 2.091,19.489 C2.321,20.039 2.641,20.599 3.071,21.159 C3.721,22.029 4.531,22.689 5.491,23.159 C6.451,23.619 7.521,23.849 8.681,23.849 C10.821,23.849 12.621,23.049 14.061,21.449 C15.511,19.849 16.231,17.849 16.231,15.439 C16.231,14.699 16.181,14.109 16.071,13.679 C15.961,13.249 15.781,12.929 15.531,12.729 C15.081,12.349 14.201,12.019 12.901,11.719 C11.601,11.419 10.241,11.269 8.821,11.269 C8.431,11.269 8.141,11.339 7.981,11.469 C7.821,11.599 7.741,11.829 7.741,12.142 C7.741,12.892 8.161,13.432 9.001,13.768 C9.841,14.108 11.191,14.278 13.061,14.278 L13.737,14.278 C13.887,14.278 14.017,14.338 14.107,14.452 C14.197,14.562 14.257,14.732 14.287,14.972 C14.097,15.142 13.717,15.342 13.133,15.572 C12.543,15.792 12.103,16.022 11.793,16.237 C11.133,16.721 10.603,17.297 10.203,17.961 C9.803,18.621 9.603,19.251 9.603,19.844 C9.603,20.204 9.689,20.644 9.861,21.154 C10.031,21.664 10.121,21.977 10.121,22.104 L10.121,22.214 L10.091,22.364 C9.611,22.334 9.231,22.051 8.951,21.514 C8.664,20.984 8.531,20.274 8.531,19.384 L8.531,19.234 C8.441,19.309 8.355,19.369 8.271,19.399 C8.185,19.433 8.093,19.449 8.001,19.449 C7.901,19.449 7.803,19.443 7.711,19.429 C7.621,19.413 7.531,19.389 7.421,19.354 C7.451,19.474 7.478,19.594 7.497,19.707 C7.507,19.827 7.517,19.917 7.517,19.977 C7.517,20.383 7.357,20.737 7.037,21.027 C6.717,21.314 6.337,21.457 5.897,21.457 C5.207,21.457 4.5,21.117 3.787,20.447 C3.072,19.773 2.717,19.107 2.717,18.462 C2.717,18.342 2.732,18.232 2.757,18.139 C2.782,18.046 2.832,17.969 2.897,17.899 L2.847,17.949 Z M14.654,11.219 C15.639,11.399 16.339,11.819 16.744,12.469 C17.154,13.109 17.354,14.129 17.354,15.529 C17.354,18.299 16.526,20.559 14.862,22.319 C13.195,24.079 11.065,24.969 8.475,24.969 C7.452,24.969 6.459,24.779 5.499,24.409 C4.529,24.039 3.709,23.519 3.009,22.869 C2.219,22.139 1.619,21.379 1.229,20.569 C0.829,19.759 0.629,18.929 0.629,18.089 C0.629,17.139 0.829,16.409 1.229,15.899 C1.629,15.379 2.279,15.029 3.159,14.839 C2.989,14.449 2.869,14.129 2.799,13.859 C2.719,13.589 2.679,13.389 2.679,13.249 C2.679,12.749 2.939,12.239 3.459,11.729 C3.979,11.209 4.469,10.949 4.929,10.949 C5.119,10.949 5.329,10.979 5.549,11.059 C5.769,11.129 6.019,11.249 6.299,11.409 C5.489,9.059 4.869,7.209 4.489,5.909 C4.099,4.599 3.909,3.709 3.909,3.209 C3.909,2.529 4.079,1.979 4.429,1.579 C4.789,1.179 5.269,0.979 5.869,0.979 C6.899,0.979 8.209,3.289 9.799,7.902 C10.079,8.692 10.279,9.302 10.429,9.732 L10.939,8.279 C12.529,3.729 13.889,1.449 15.039,1.449 C15.599,1.449 16.049,1.639 16.379,2.019 C16.709,2.402 16.879,2.906 16.879,3.542 C16.879,4.022 16.689,4.902 16.319,6.192 C15.952,7.472 15.399,9.152 14.649,11.232 L14.654,11.219 Z" id="Shape"></path>
        </g>
    </g>
</svg>