<svg width="89" height="88" viewBox="0 0 89 88" fill="none" xmlns="http://www.w3.org/2000/svg">
<path d="M20.134 0.164083C18.7937 0.515645 17.9569 1.14065 17.437 2.18752C17.1527 2.75002 17.1365 2.83596 17.1446 3.53127C17.1527 4.39846 17.3639 5.1094 17.9488 6.16408C18.6393 7.4219 19.4029 8.43752 24.2689 14.5938C31.8156 24.1406 35.3249 31.0391 36.0236 37.7188C36.1698 39.0703 36.0885 41.5781 35.8692 42.7891C34.4557 50.5 27.6889 59.336 14.6994 70.4453C13.026 71.875 11.6775 73.0078 8.68806 75.4844C3.71649 79.6016 2.12429 81.1094 1.37693 82.3985C0.572708 83.7969 0.702684 85.2735 1.71812 86.2422C3.01787 87.4844 5.21121 87.6875 8.72868 86.8828C9.2892 86.7578 9.81722 86.6328 9.90658 86.6172C9.99594 86.5938 9.96345 86.6328 9.82535 86.6875L9.58164 86.7969L9.82535 86.8906C10.2478 87.0547 10.5971 87.0703 11.1901 86.9766C12.2137 86.8047 13.7652 86.3828 15.065 85.9141C15.2681 85.8438 15.723 85.6797 16.0804 85.5469C16.4379 85.4219 16.8115 85.2813 16.9171 85.2422C17.0146 85.2031 17.1771 85.1406 17.2827 85.1016C17.3802 85.0625 17.632 84.961 17.8432 84.8672C18.0544 84.7735 18.2575 84.7031 18.2981 84.7031C18.3631 84.7031 18.9643 84.4453 19.2242 84.3125C19.3054 84.2656 19.4029 84.2344 19.4435 84.2344C19.4923 84.2344 19.7522 84.1328 20.0366 84.0078C20.5158 83.7969 20.7839 83.6875 21.4257 83.4219C21.9212 83.2188 23.0341 82.7344 23.7165 82.4375C23.9846 82.3125 24.407 82.1328 24.6507 82.0235C24.8944 81.9141 25.3006 81.7422 25.5443 81.6328C25.788 81.5313 26.3972 81.2578 26.8846 81.0313C27.3802 80.8047 28.0869 80.4844 28.4687 80.3125C29.5654 79.8125 36.6491 76.4141 38.2575 75.6172C39.9391 74.7813 40.8976 74.2891 43.4809 72.9766C44.3258 72.5391 45.2681 72.0547 45.593 71.875C45.7311 71.7969 45.9748 71.6719 46.121 71.5938C46.2591 71.5156 46.6897 71.2969 47.0715 71.1016C47.4533 70.9141 47.7782 70.7422 47.8026 70.7188C47.827 70.6953 48.0788 70.5547 48.3712 70.4141C48.6637 70.2656 49.0292 70.0781 49.1836 69.9922C49.3379 69.9063 49.6223 69.7578 49.8172 69.6563C50.1665 69.4688 50.5808 69.2422 51.2795 68.875C51.4907 68.7578 51.8075 68.586 51.9862 68.4922C52.1649 68.3985 52.4574 68.2422 52.6361 68.1406C52.8148 68.0469 53.1072 67.8906 53.2859 67.8047C53.4647 67.711 53.6271 67.6172 53.6515 67.5938C53.684 67.5625 53.8871 67.4531 54.5857 67.0938C54.6751 67.0469 54.7644 66.9922 54.7888 66.9688C54.8132 66.9453 55.0163 66.836 55.2356 66.7344C55.463 66.625 55.658 66.5235 55.6824 66.5C55.7474 66.4375 56.186 66.1875 56.4947 66.0469C56.6491 65.9766 56.7953 65.8906 56.8034 65.8516C56.8197 65.8203 56.8603 65.7969 56.9009 65.7969C56.9334 65.7969 57.2096 65.6563 57.502 65.4844C57.7945 65.3125 58.0707 65.1719 58.1194 65.1719C58.16 65.1719 58.2007 65.1328 58.2007 65.0938C58.2007 65.0469 58.2494 65.0156 58.3063 65.0156C58.355 65.0156 58.6962 64.836 59.0536 64.625C59.4111 64.4063 59.7441 64.2344 59.801 64.2344C59.8578 64.2344 59.9066 64.1953 59.9066 64.1563C59.9066 64.1094 59.9634 64.0781 60.0284 64.0781C60.0934 64.0781 60.1503 64.0391 60.1503 64C60.1503 63.9531 60.1909 63.9219 60.2315 63.9219C60.2803 63.9219 61.84 63.0391 63.7084 61.961C65.5686 60.875 67.1771 59.9531 67.2746 59.9063C67.3802 59.8594 67.4614 59.7969 67.4614 59.7578C67.4614 59.7266 67.4939 59.7031 67.5427 59.7031C67.6158 59.7031 68.5418 59.1641 68.7368 59C68.7937 58.961 68.8505 58.9219 68.8749 58.9219C68.9236 58.9219 69.8985 58.336 70.0366 58.2188C70.0934 58.1797 70.1503 58.1406 70.1747 58.1406C70.199 58.1406 70.5565 57.9297 70.9708 57.6719C71.3851 57.4141 71.7831 57.1641 71.8481 57.125C72.2218 56.9063 77.1771 53.7344 77.2096 53.6875C77.234 53.6563 77.4858 53.4844 77.7701 53.2969C78.0544 53.1172 78.3469 52.9141 78.42 52.8594C78.4931 52.8047 78.9318 52.4922 79.4029 52.1563C79.8741 51.8203 80.2721 51.5235 80.2965 51.5C80.3209 51.4766 80.5402 51.3047 80.7839 51.1094C81.3851 50.6328 81.9456 50.0938 81.8887 50.0391C81.8643 50.0156 81.7912 50.0391 81.7181 50.0938C81.6531 50.1485 81.5963 50.1719 81.5963 50.1485C81.5963 50.1328 81.9293 49.875 82.3436 49.5781C85.4224 47.3828 87.2502 45.6719 87.9001 44.3672C88.818 42.5156 88.1925 40.3438 85.9423 37.6328C80.329 30.8672 62.6929 18.5 45.3574 9.17971C36.381 4.34377 29.273 1.33596 24.3664 0.273458C23.0991 2.0466e-05 20.9708 -0.054667 20.134 0.164083ZM81.515 50.2031C81.515 50.2188 81.45 50.2813 81.3769 50.336C81.247 50.4375 81.2388 50.4297 81.3444 50.3047C81.45 50.1797 81.515 50.1406 81.515 50.2031Z" fill="#64F5E0"/>
<path d="M82.1243 49.8203C81.9943 49.9219 81.9131 50.0078 81.9456 50.0156C81.9781 50.0156 82.108 49.9297 82.2299 49.8203C82.5061 49.5703 82.4411 49.5703 82.1243 49.8203Z" fill="#64F5E0"/>
<path d="M9.36231 86.8672C9.41917 86.8906 9.49228 86.8828 9.51665 86.8594C9.54915 86.8359 9.50041 86.8125 9.41105 86.8203C9.32169 86.8203 9.29732 86.8438 9.36231 86.8672Z" fill="#64F5E0"/>
</svg>
