<svg width="32" height="32" viewBox="0 0 32 32" fill="none" xmlns="http://www.w3.org/2000/svg">
<path d="M16 32C7.183 32 0 24.817 0 16C0 7.183 7.183 0 16 0C24.817 0 32 7.183 32 16C32 24.817 24.817 32 16 32ZM29.495 18.188C29.027 18.041 25.266 16.917 20.979 17.604C22.766 22.516 23.495 26.516 23.636 27.349C26.703 25.276 28.885 21.989 29.495 18.188V18.188ZM21.339 28.599C21.136 27.402 20.339 23.224 18.422 18.24L18.334 18.265C10.615 20.953 7.855 26.302 7.615 26.802C9.918 28.609 12.839 29.687 16 29.687C17.891 29.687 19.693 29.302 21.333 28.603L21.339 28.599ZM5.849 25.161C6.156 24.625 9.906 18.421 16.958 16.14C17.135 16.079 17.317 16.027 17.494 15.979C17.15 15.198 16.775 14.422 16.385 13.662C9.562 15.698 2.942 15.615 2.344 15.599L2.339 16.016C2.339 19.527 3.667 22.735 5.85 25.156L5.849 25.161ZM2.62 13.219C3.235 13.23 8.864 13.255 15.255 11.558C12.99 7.531 10.547 4.146 10.188 3.651C6.364 5.454 3.511 8.974 2.62 13.214V13.219ZM12.803 2.735C13.178 3.246 15.662 6.62 17.896 10.735C22.755 8.918 24.817 6.151 25.063 5.803C22.646 3.651 19.474 2.355 16 2.355C14.901 2.355 13.828 2.484 12.803 2.735V2.735ZM26.579 7.38C26.292 7.765 24 10.703 18.948 12.765C19.265 13.421 19.573 14.078 19.855 14.749C19.964 14.989 20.052 15.229 20.146 15.453C24.694 14.88 29.214 15.802 29.667 15.896C29.64 12.667 28.495 9.708 26.588 7.385L26.579 7.38Z" fill="#64F5E0"/>
</svg>
