<svg width="22" height="23" viewBox="0 0 22 23" fill="none" xmlns="http://www.w3.org/2000/svg">
<path d="M7.33333 22.2334C5.7134 22.2334 4.4 20.8603 4.4 19.1667C4.4 17.4732 5.7134 16.1001 7.33333 16.1001H9.42847C9.8912 16.1001 10.2667 16.4926 10.2667 16.9764V19.1667C10.2667 20.8603 8.95327 22.2334 7.33333 22.2334ZM14.6667 6.90006H12.5715C12.1088 6.90006 11.7333 6.50752 11.7333 6.02376V1.64302C11.7333 1.15926 12.1088 0.766724 12.5715 0.766724H14.6667C16.2866 0.766724 17.6 2.13982 17.6 3.83339C17.6 5.52696 16.2866 6.90006 14.6667 6.90006ZM7.33333 0.766724H9.42847C9.8912 0.766724 10.2667 1.15926 10.2667 1.64302V6.02376C10.2667 6.50752 9.8912 6.90006 9.42847 6.90006H7.33333C5.7134 6.90006 4.4 5.52696 4.4 3.83339C4.4 2.13982 5.7134 0.766724 7.33333 0.766724ZM7.33333 8.43339H9.42847C9.8912 8.43339 10.2667 8.82592 10.2667 9.30969V13.6904C10.2667 14.1742 9.8912 14.5667 9.42847 14.5667H7.33333C5.7134 14.5667 4.4 13.1936 4.4 11.5001C4.4 9.80649 5.7134 8.43339 7.33333 8.43339ZM14.6667 8.43339C13.8887 8.43339 13.1426 8.75648 12.5925 9.3316C12.0424 9.90671 11.7333 10.6867 11.7333 11.5001C11.7333 12.3134 12.0424 13.0934 12.5925 13.6685C13.1426 14.2436 13.8887 14.5667 14.6667 14.5667C15.4446 14.5667 16.1907 14.2436 16.7408 13.6685C17.291 13.0934 17.6 12.3134 17.6 11.5001C17.6 10.6867 17.291 9.90671 16.7408 9.3316C16.1907 8.75648 15.4446 8.43339 14.6667 8.43339V8.43339Z" fill="black"/>
</svg>
