<svg width="896" height="704" viewBox="0 0 896 704" fill="none" xmlns="http://www.w3.org/2000/svg">
<path d="M864 0H32C14.3 0 0 14.3 0 32V672C0 689.7 14.3 704 32 704H864C881.7 704 896 689.7 896 672V32C896 14.3 881.7 0 864 0ZM824 110.8V632H72V110.8L44.4 89.3L83.7 38.8L126.5 72.1H769.6L812.4 38.8L851.7 89.3L824 110.8V110.8ZM769.6 72L448 322L126.4 72L83.6 38.7L44.3 89.2L71.9 110.7L413.5 376.3C423.324 383.932 435.41 388.075 447.85 388.075C460.29 388.075 472.376 383.932 482.2 376.3L824 110.8L851.6 89.3L812.3 38.8L769.6 72Z" fill="#64F5E0"/>
</svg>
