<svg width="24" height="18" viewBox="0 0 24 18" fill="none" xmlns="http://www.w3.org/2000/svg">
<path d="M18.561 10.1579C17.459 10.1579 16.426 9.69094 15.487 8.93094L15.715 7.85494L15.723 7.81294C15.93 6.66994 16.572 4.75294 18.562 4.75294C20.054 4.75294 21.265 5.96494 21.265 7.45594C21.264 8.94494 20.053 10.1579 18.561 10.1579V10.1579ZM18.561 2.01794C16.022 2.01794 14.051 3.66694 13.251 6.38394C12.031 4.54994 11.103 2.34794 10.564 0.491943H7.828V7.60394C7.826 9.00994 6.687 10.1499 5.281 10.1519C3.876 10.1499 2.738 9.00894 2.736 7.60394V0.491943H0V7.60394C0 10.5179 2.37 12.9069 5.281 12.9069C8.194 12.9069 10.564 10.5179 10.564 7.60394V6.41394C11.093 7.52094 11.746 8.64294 12.538 9.63494L10.865 17.5079H13.662L14.875 11.7979C15.938 12.4769 17.16 12.9069 18.561 12.9069C21.561 12.9069 24 10.4549 24 7.45694C24 4.45694 21.561 2.01794 18.561 2.01794V2.01794Z" fill="#64F5E0"/>
</svg>
