<svg xmlns="http://www.w3.org/2000/svg" xmlns:xlink="http://www.w3.org/1999/xlink" version="1.1" width="256" height="256" viewBox="0 0 256 256" xml:space="preserve">
<desc>Created with Fabric.js 1.7.22</desc>
<defs>
</defs>
<g transform="translate(128 128) scale(0.72 0.72)" style="">
	<g style="stroke: none; stroke-width: 0; stroke-dasharray: none; stroke-linecap: butt; stroke-linejoin: miter; stroke-miterlimit: 10; fill: none; fill-rule: nonzero; opacity: 1;" transform="translate(-175.05 -175.05000000000004) scale(3.89 3.89)" >
	<path d="M 15.886 90 c -0.303 0 -0.608 -0.069 -0.89 -0.209 c -0.68 -0.338 -1.109 -1.032 -1.109 -1.791 V 2 c 0 -1.104 0.896 -2 2 -2 h 58.227 c 1.104 0 2 0.896 2 2 v 86 c 0 0.759 -0.43 1.453 -1.109 1.791 c -0.68 0.337 -1.491 0.262 -2.098 -0.196 L 45 68.469 L 17.093 89.595 C 16.739 89.862 16.314 90 15.886 90 z M 17.886 4 v 79.978 l 25.907 -19.612 c 0.714 -0.541 1.702 -0.54 2.414 0 l 25.906 19.612 V 4 H 17.886 z" style="stroke: none; stroke-width: 1; stroke-dasharray: none; stroke-linecap: butt; stroke-linejoin: miter; stroke-miterlimit: 10; fill: rgb(0,0,0); fill-rule: nonzero; opacity: 1;" transform=" matrix(1 0 0 1 0 0) " stroke-linecap="round" />
</g>
</g>
</svg>