<svg xmlns="http://www.w3.org/2000/svg" xmlns:xlink="http://www.w3.org/1999/xlink" version="1.1" width="256" height="256" viewBox="0 0 256 256" xml:space="preserve">
<desc>Created with Fabric.js 1.7.22</desc>
<defs>
</defs>
<g transform="translate(128 128) scale(0.72 0.72)" style="">
	<g style="stroke: none; stroke-width: 0; stroke-dasharray: none; stroke-linecap: butt; stroke-linejoin: miter; stroke-miterlimit: 10; fill: none; fill-rule: nonzero; opacity: 1;" transform="translate(-175.05 -175.05000000000004) scale(3.89 3.89)" >
	<path d="M 45 46.769 c -1.603 0 -3.207 -0.256 -4.766 -0.769 L 2.346 33.551 l 0 0 C 0.942 33.09 0 31.788 0 30.311 c 0 -1.477 0.943 -2.779 2.346 -3.239 l 37.888 -12.449 c 3.119 -1.024 6.414 -1.024 9.53 0 l 37.889 12.449 c 1.403 0.46 2.346 1.762 2.347 3.239 c 0 1.477 -0.942 2.779 -2.347 3.241 L 49.765 46 C 48.206 46.513 46.604 46.769 45 46.769 z M 5.299 30.311 L 41.483 42.2 c 2.3 0.755 4.731 0.756 7.033 0 l 36.185 -11.889 L 48.517 18.422 c -2.302 -0.756 -4.733 -0.755 -7.033 0 L 5.299 30.311 z" style="stroke: none; stroke-width: 1; stroke-dasharray: none; stroke-linecap: butt; stroke-linejoin: miter; stroke-miterlimit: 10; fill: rgb(0,0,0); fill-rule: nonzero; opacity: 1;" transform=" matrix(1 0 0 1 0 0) " stroke-linecap="round" />
	<path d="M 45 70.147 c -7.319 0 -14.637 -1.024 -21.905 -3.074 c -2.652 -0.749 -4.505 -3.177 -4.505 -5.905 V 37.44 c 0 -1.104 0.896 -2 2 -2 s 2 0.896 2 2 v 23.728 c 0 0.946 0.654 1.791 1.591 2.056 c 13.814 3.897 27.822 3.896 41.638 0 c 0.937 -0.265 1.591 -1.11 1.591 -2.056 V 37.44 c 0 -1.104 0.896 -2 2 -2 s 2 0.896 2 2 v 23.728 c 0 2.728 -1.853 5.156 -4.504 5.905 C 59.638 69.123 52.319 70.147 45 70.147 z" style="stroke: none; stroke-width: 1; stroke-dasharray: none; stroke-linecap: butt; stroke-linejoin: miter; stroke-miterlimit: 10; fill: rgb(0,0,0); fill-rule: nonzero; opacity: 1;" transform=" matrix(1 0 0 1 0 0) " stroke-linecap="round" />
	<path d="M 83.489 56.27 c -1.104 0 -2 -0.896 -2 -2 V 32.814 c 0 -1.104 0.896 -2 2 -2 s 2 0.896 2 2 V 54.27 C 85.489 55.374 84.594 56.27 83.489 56.27 z" style="stroke: none; stroke-width: 1; stroke-dasharray: none; stroke-linecap: butt; stroke-linejoin: miter; stroke-miterlimit: 10; fill: rgb(0,0,0); fill-rule: nonzero; opacity: 1;" transform=" matrix(1 0 0 1 0 0) " stroke-linecap="round" />
	<path d="M 83.489 62.774 c -2.896 0 -5.253 -2.356 -5.253 -5.253 c 0 -2.896 2.356 -5.252 5.253 -5.252 c 2.896 0 5.252 2.356 5.252 5.252 C 88.741 60.418 86.385 62.774 83.489 62.774 z M 83.489 56.27 c -0.69 0 -1.253 0.562 -1.253 1.252 s 0.563 1.253 1.253 1.253 s 1.252 -0.563 1.252 -1.253 S 84.18 56.27 83.489 56.27 z" style="stroke: none; stroke-width: 1; stroke-dasharray: none; stroke-linecap: butt; stroke-linejoin: miter; stroke-miterlimit: 10; fill: rgb(0,0,0); fill-rule: nonzero; opacity: 1;" transform=" matrix(1 0 0 1 0 0) " stroke-linecap="round" />
	<path d="M 83.489 70.161 c -1.104 0 -2 -0.896 -2 -2 v -7.387 c 0 -1.104 0.896 -2 2 -2 s 2 0.896 2 2 v 7.387 C 85.489 69.266 84.594 70.161 83.489 70.161 z" style="stroke: none; stroke-width: 1; stroke-dasharray: none; stroke-linecap: butt; stroke-linejoin: miter; stroke-miterlimit: 10; fill: rgb(0,0,0); fill-rule: nonzero; opacity: 1;" transform=" matrix(1 0 0 1 0 0) " stroke-linecap="round" />
</g>
</g>
</svg>