<svg xmlns="http://www.w3.org/2000/svg" xmlns:xlink="http://www.w3.org/1999/xlink" version="1.1" width="256" height="256" viewBox="0 0 256 256" xml:space="preserve">
<desc>Created with Fabric.js 1.7.22</desc>
<defs>
</defs>
<g transform="translate(128 128) scale(0.72 0.72)" style="">
	<g style="stroke: none; stroke-width: 0; stroke-dasharray: none; stroke-linecap: butt; stroke-linejoin: miter; stroke-miterlimit: 10; fill: none; fill-rule: nonzero; opacity: 1;" transform="translate(-175.05 -175.05000000000004) scale(3.89 3.89)" >
	<path d="M 45.013 41.29 c -4.968 0 -9.009 -4.042 -9.009 -9.009 s 4.042 -9.009 9.009 -9.009 c 4.967 0 9.009 4.042 9.009 9.009 S 49.98 41.29 45.013 41.29 z M 45.013 27.271 c -2.762 0 -5.009 2.247 -5.009 5.009 s 2.247 5.009 5.009 5.009 s 5.009 -2.247 5.009 -5.009 S 47.775 27.271 45.013 27.271 z" style="stroke: none; stroke-width: 1; stroke-dasharray: none; stroke-linecap: butt; stroke-linejoin: miter; stroke-miterlimit: 10; fill: rgb(0,0,0); fill-rule: nonzero; opacity: 1;" transform=" matrix(1 0 0 1 0 0) " stroke-linecap="round" />
	<path d="M 72.157 50.709 l -3.013 -12.493 c -0.267 -1.105 -0.822 -2.125 -1.607 -2.952 l -5.1 -5.354 c -0.61 -4.304 -1.752 -8.797 -3.345 -12.985 c -0.005 -0.015 -0.006 -0.03 -0.011 -0.045 c -2.007 -5.263 -6.42 -14.441 -13.436 -16.777 c -0.41 -0.137 -0.854 -0.137 -1.264 0 C 37.366 2.439 32.952 11.617 30.946 16.88 c -0.005 0.012 -0.005 0.025 -0.009 0.038 c -1.591 4.18 -2.732 8.664 -3.344 12.961 l -5.131 5.387 c -0.784 0.824 -1.34 1.844 -1.607 2.951 L 17.842 50.71 c -0.361 1.5 0.06 3.061 1.127 4.176 c 0.862 0.899 2.033 1.392 3.25 1.392 c 0.29 0 0.582 -0.028 0.873 -0.085 l 8.811 -1.722 l 3.245 4.943 c 0.37 0.563 0.998 0.902 1.672 0.902 h 16.388 c 0.674 0 1.303 -0.339 1.672 -0.902 l 3.242 -4.939 l 8.788 1.717 c 0.292 0.057 0.584 0.085 0.873 0.085 c 1.217 0 2.388 -0.492 3.25 -1.393 C 72.098 53.771 72.519 52.209 72.157 50.709 z M 34.01 50.255 c -0.083 -0.162 -0.159 -0.322 -0.231 -0.481 c -1.767 -3.918 -2.7 -8.471 -2.7 -13.165 c 0 -5.22 1.135 -11.349 3.136 -17.016 h 21.596 c 2.001 5.666 3.137 11.796 3.137 17.016 c 0 4.693 -0.934 9.246 -2.699 13.164 c -0.072 0.159 -0.149 0.32 -0.232 0.482 H 34.01 z M 45.013 4.143 c 3.247 1.434 6.565 5.578 9.206 11.45 H 35.807 C 38.449 9.72 41.767 5.576 45.013 4.143 z M 22.325 52.267 c -0.226 0.046 -0.378 -0.056 -0.466 -0.147 c -0.088 -0.092 -0.182 -0.249 -0.127 -0.473 l 3.012 -12.493 c 0.103 -0.424 0.316 -0.815 0.616 -1.131 l 1.731 -1.818 c -0.001 0.133 -0.011 0.272 -0.011 0.403 c 0 5.014 0.971 9.897 2.793 14.183 L 22.325 52.267 z M 52.127 56.316 H 37.899 l -1.354 -2.062 H 53.48 L 52.127 56.316 z M 68.142 52.119 c -0.088 0.092 -0.241 0.193 -0.466 0.147 l -7.524 -1.47 c 1.824 -4.288 2.795 -9.173 2.795 -14.188 c 0 -0.122 -0.009 -0.252 -0.01 -0.375 l 1.703 1.788 c 0.301 0.316 0.515 0.708 0.616 1.131 l 3.013 12.494 C 68.322 51.871 68.229 52.027 68.142 52.119 z" style="stroke: none; stroke-width: 1; stroke-dasharray: none; stroke-linecap: butt; stroke-linejoin: miter; stroke-miterlimit: 10; fill: rgb(0,0,0); fill-rule: nonzero; opacity: 1;" transform=" matrix(1 0 0 1 0 0) " stroke-linecap="round" />
	<path d="M 56.573 74.693 c -2.046 0 -4.025 0.473 -5.819 1.347 v -9.75 c 0 -1.104 -0.896 -2 -2 -2 s -2 0.896 -2 2 V 79.77 c -0.001 0.019 0 0.037 0 0.056 v 2.52 c 0 1.104 0.896 2 2 2 s 2 -0.896 2 -2 V 80.74 c 1.647 -1.324 3.683 -2.047 5.819 -2.047 c 4.446 0 8.174 3.133 9.091 7.307 H 24.336 c 0.917 -4.174 4.645 -7.307 9.091 -7.307 c 2.137 0 4.173 0.723 5.82 2.047 v 1.606 c 0 1.104 0.896 2 2 2 s 2 -0.896 2 -2 V 79.81 c 0 -0.01 0 -0.02 0 -0.029 v -13.49 c 0 -1.104 -0.896 -2 -2 -2 s -2 0.896 -2 2 v 9.75 c -1.794 -0.874 -3.773 -1.347 -5.82 -1.347 c -7.337 0 -13.307 5.97 -13.307 13.307 c 0 1.104 0.896 2 2 2 h 45.761 c 1.104 0 2 -0.896 2 -2 C 69.881 80.663 63.911 74.693 56.573 74.693 z" style="stroke: none; stroke-width: 1; stroke-dasharray: none; stroke-linecap: butt; stroke-linejoin: miter; stroke-miterlimit: 10; fill: rgb(0,0,0); fill-rule: nonzero; opacity: 1;" transform=" matrix(1 0 0 1 0 0) " stroke-linecap="round" />
</g>
</g>
</svg>